<svg width="40" height="40" viewBox="0 0 40 40" fill="none" xmlns="http://www.w3.org/2000/svg">
<rect width="40" height="40" rx="20" fill="#F3F3F3"/>
<path fill-rule="evenodd" clip-rule="evenodd" d="M19.9997 31.846L24.7354 17.271H15.2643L19.9997 31.846Z" fill="#090909"/>
<path opacity="0.5" fill-rule="evenodd" clip-rule="evenodd" d="M20.0004 31.846L15.2647 17.271H8.62756L20.0004 31.846Z" fill="#090909"/>
<path opacity="0.25" fill-rule="evenodd" clip-rule="evenodd" d="M8.62655 17.2711L7.1873 21.7002C7.05612 22.1043 7.19984 22.5469 7.5436 22.7965L19.9993 31.8461L8.62655 17.2711Z" fill="#090909"/>
<path fill-rule="evenodd" clip-rule="evenodd" d="M8.62763 17.271H15.2647L12.4123 8.49257C12.2656 8.04089 11.6266 8.04089 11.4799 8.49257L8.62763 17.271Z" fill="#090909"/>
<path opacity="0.5" fill-rule="evenodd" clip-rule="evenodd" d="M20.0006 31.846L24.7363 17.271H31.3735L20.0006 31.846Z" fill="#090909"/>
<path opacity="0.25" fill-rule="evenodd" clip-rule="evenodd" d="M31.3734 17.2711L32.8126 21.7002C32.9439 22.1043 32.8001 22.5469 32.4564 22.7965L20.0006 31.8461L31.3734 17.2711Z" fill="#090909"/>
<path fill-rule="evenodd" clip-rule="evenodd" d="M31.3721 17.271H24.735L27.5875 8.49257C27.7342 8.04089 28.3732 8.04089 28.5199 8.49257L31.3721 17.271Z" fill="#090909"/>
</svg>
