<svg width="40" height="40" viewBox="0 0 40 40" fill="none" xmlns="http://www.w3.org/2000/svg">
<path d="M0 20C0 8.95431 8.95431 0 20 0C31.0457 0 40 8.95431 40 20C40 31.0457 31.0457 40 20 40C8.95431 40 0 31.0457 0 20Z" fill="#F3F3F3"/>
<path fill-rule="evenodd" clip-rule="evenodd" d="M20.0126 5C11.5704 5 4.74573 11.875 4.74573 20.3803C4.74573 27.1791 9.11854 32.9341 15.1848 34.9709C15.9432 35.1241 16.221 34.64 16.221 34.2328C16.221 33.8762 16.196 32.6541 16.196 31.3806C11.9492 32.2975 11.0648 29.5472 11.0648 29.5472C10.3823 27.7647 9.37104 27.3066 9.37104 27.3066C7.98104 26.3644 9.47229 26.3644 9.47229 26.3644C11.0142 26.4662 11.8232 27.9431 11.8232 27.9431C13.1879 30.2856 15.387 29.6237 16.2717 29.2162C16.3979 28.2231 16.8026 27.5356 17.2323 27.1537C13.8451 26.7972 10.2814 25.4731 10.2814 19.5653C10.2814 17.8847 10.8876 16.5097 11.8482 15.4403C11.6967 15.0584 11.1657 13.4794 12.0001 11.3659C12.0001 11.3659 13.2892 10.9584 16.1957 12.9447C17.4401 12.608 18.7235 12.4368 20.0126 12.4353C21.3017 12.4353 22.6157 12.6137 23.8292 12.9447C26.736 10.9584 28.0251 11.3659 28.0251 11.3659C28.8595 13.4794 28.3282 15.0584 28.1767 15.4403C29.1626 16.5097 29.7439 17.8847 29.7439 19.5653C29.7439 25.4731 26.1801 26.7716 22.7676 27.1537C23.3239 27.6375 23.8039 28.5541 23.8039 30.0056C23.8039 32.0681 23.7789 33.7234 23.7789 34.2325C23.7789 34.64 24.057 35.1241 24.8151 34.9712C30.8814 32.9337 35.2542 27.1791 35.2542 20.3803C35.2792 11.875 28.4295 5 20.0126 5Z" fill="#090909"/>
</svg>
